<?xml version="1.0" standalone="no"?>
<!DOCTYPE svg PUBLIC "-//W3C//DTD SVG 20010904//EN"
 "http://www.w3.org/TR/2001/REC-SVG-20010904/DTD/svg10.dtd">
<svg version="1.0" xmlns="http://www.w3.org/2000/svg"
 width="211.000000pt" height="97.000000pt" viewBox="0 0 211.000000 97.000000"
 preserveAspectRatio="xMidYMid meet">
<metadata>
Created by potrace 1.14, written by Peter Selinger 2001-2017
</metadata>
<g transform="translate(0.000000,97.000000) scale(0.100000,-0.100000)"
fill="#000000" stroke="none">
<path d="M1200 890 l0 -80 34 0 c19 0 41 -3 50 -6 14 -5 16 6 16 80 l0 86 -50
0 -50 0 0 -80z"/>
<path d="M258 737 c-151 -57 -247 -179 -256 -329 -6 -98 10 -163 58 -238 75
-114 205 -178 344 -167 84 7 133 25 203 78 46 35 113 125 113 153 0 5 -40 7
-88 4 -79 -4 -94 -7 -136 -36 -78 -51 -162 -52 -243 -3 -32 20 -91 97 -81 106
2 3 131 5 286 5 324 1 299 -8 287 109 -13 130 -87 236 -207 297 -45 23 -68 28
-148 31 -63 2 -107 -1 -132 -10z m234 -183 c24 -16 53 -48 66 -71 l23 -42
-206 -1 c-113 0 -205 2 -205 5 0 34 67 106 120 130 57 25 150 16 202 -21z"/>
<path d="M1285 178 c-5 -13 -19 -18 -46 -18 l-39 0 0 -80 0 -80 110 0 110 0 0
80 0 80 -59 0 c-48 0 -60 3 -64 18 -4 16 -4 16 -12 0z"/>
</g>
</svg>
