<?xml version="1.0" standalone="no"?>
<!DOCTYPE svg PUBLIC "-//W3C//DTD SVG 20010904//EN"
 "http://www.w3.org/TR/2001/REC-SVG-20010904/DTD/svg10.dtd">
<svg version="1.0" xmlns="http://www.w3.org/2000/svg"
 width="500.000000pt" height="273.000000pt" viewBox="0 0 500.000000 273.000000"
 preserveAspectRatio="xMidYMid meet">
<metadata>
Created by potrace 1.13, written by Peter Selinger 2001-2015
</metadata>
<g transform="translate(0.000000,273.000000) scale(0.100000,-0.100000)"
fill="#000000" stroke="none">
<path d="M2439 1893 l-15 -48 -389 0 -390 0 -3 43 -3 43 -77 -3 -77 -3 -5 -35
-5 -35 -120 0 -120 0 3 38 3 37 -85 0 -84 0 -9 -37 -9 -38 -148 -2 c-81 -1
-149 -3 -151 -5 -1 -2 -5 -27 -9 -55 l-7 -53 152 0 152 0 -5 -45 -6 -45 83 0
c90 0 95 3 95 61 l0 29 126 0 125 0 -7 -45 -6 -45 81 0 c80 0 81 0 87 28 3 15
7 33 10 40 3 9 138 12 634 12 l632 0 -6 -27 c-3 -16 -8 -53 -12 -83 -11 -93
-25 -110 -95 -110 -51 0 -59 -10 -59 -77 l0 -33 91 0 c168 0 200 35 229 246
11 77 22 151 25 167 l5 27 -225 0 c-124 0 -225 3 -225 6 0 3 4 13 9 22 4 9 11
29 15 45 l6 27 -98 0 -98 0 -15 -47z"/>
<path d="M3795 1928 c-2 -7 -5 -26 -7 -43 l-3 -30 -241 -3 -241 -2 -7 -63 c-4
-34 -10 -79 -13 -100 l-6 -38 79 3 c76 3 79 4 82 28 1 14 5 35 7 48 l5 22 420
0 420 0 -6 -32 c-3 -18 -7 -41 -9 -50 -3 -16 6 -18 74 -18 l78 0 11 83 c7 45
12 90 12 100 0 16 -18 17 -236 17 l-236 0 4 43 3 42 -93 3 c-68 2 -93 -1 -97
-10z"/>
<path d="M3624 1689 c-23 -25 -144 -83 -204 -97 -25 -6 -71 -14 -102 -17 -52
-7 -58 -10 -58 -30 0 -13 -3 -31 -7 -41 -6 -16 1 -17 85 -11 51 4 92 5 92 3 0
-8 -20 -161 -26 -193 l-5 -33 161 0 160 0 0 -27 c0 -52 -1 -52 -235 -55 l-220
-3 -11 -85 c-7 -47 -17 -124 -24 -172 l-12 -88 -90 0 c-80 0 -89 2 -84 17 7
17 66 435 66 466 0 16 -26 17 -409 17 -362 0 -410 2 -422 16 -11 13 -10 40 5
162 10 81 19 152 20 157 0 6 -34 11 -81 13 l-82 3 -6 -33 c-32 -190 -43 -345
-25 -379 26 -47 45 -49 439 -49 208 0 372 -4 375 -9 8 -12 -31 -299 -45 -333
-11 -26 -43 -44 -88 -50 -20 -2 -27 -12 -37 -51 -9 -37 -9 -49 -1 -53 7 -2
147 -3 312 -2 l300 3 22 160 c12 88 22 168 22 178 1 15 14 17 136 17 115 0
135 -2 135 -15 0 -30 -98 -115 -172 -150 -66 -32 -74 -38 -79 -70 -5 -31 -4
-35 17 -35 66 0 208 61 286 123 l37 29 30 -34 c31 -35 124 -90 172 -102 25 -5
26 -8 21 -57 l-5 -51 101 4 c162 5 182 31 216 281 13 89 21 165 19 170 -2 4
-104 7 -227 7 l-223 0 6 38 6 37 125 5 c99 4 131 9 152 23 29 20 68 91 68 124
0 11 3 34 6 51 l6 31 84 -6 c78 -6 84 -5 84 13 0 10 3 29 6 40 5 20 0 22 -69
32 -103 16 -183 48 -232 93 -42 39 -43 39 -124 39 -44 0 -81 -3 -81 -6 0 -16
69 -99 100 -120 l35 -24 -205 0 c-194 1 -203 2 -175 17 43 23 111 80 129 109
l16 24 -83 0 c-72 0 -87 -3 -103 -21z m442 -261 c-12 -65 -23 -68 -267 -68
l-219 0 0 34 c0 69 -13 66 252 66 l241 0 -7 -32z m84 -355 c0 -47 -29 -205
-40 -218 -20 -25 -40 -18 -40 14 0 23 -6 31 -31 42 -73 30 -159 121 -159 168
0 7 44 11 135 11 122 0 135 -2 135 -17z"/>
<path d="M1795 1644 c-115 -26 -272 -34 -642 -34 -204 0 -374 -3 -376 -8 -3
-4 -7 -26 -8 -50 l-3 -43 450 1 c340 0 472 4 539 15 48 8 91 18 95 22 11 12
22 113 13 112 -4 -1 -35 -8 -68 -15z"/>
<path d="M2465 1608 c8 -28 17 -82 21 -120 l7 -68 73 0 c40 0 75 3 77 8 6 9
-27 166 -42 205 -10 26 -13 27 -80 27 l-69 0 13 -52z"/>
<path d="M1599 1420 c-17 -32 -47 -77 -65 -99 -19 -21 -34 -41 -34 -43 0 -1
32 -2 71 -1 63 1 74 4 101 30 34 33 108 142 108 160 0 9 -21 13 -74 13 l-75 0
-32 -60z"/>
<path d="M830 1468 c0 -2 7 -25 15 -52 8 -27 15 -69 15 -93 l0 -43 80 0 c94 0
94 -1 57 115 l-23 70 -72 3 c-40 2 -72 2 -72 0z"/>
<path d="M1190 1464 c0 -3 6 -26 14 -52 8 -26 17 -59 20 -74 6 -28 8 -28 82
-28 67 0 75 2 70 18 -2 9 -12 45 -22 80 l-17 62 -73 0 c-41 0 -74 -3 -74 -6z"/>
<path d="M1190 1256 c0 -58 10 -56 -266 -56 -196 0 -254 -3 -254 -12 0 -7 -3
-30 -6 -50 l-7 -38 126 0 c69 0 128 -4 131 -9 17 -27 -121 -162 -218 -212 -62
-32 -66 -36 -72 -77 -4 -24 -4 -45 -1 -48 3 -3 44 8 91 24 155 54 261 132 340
252 40 60 51 70 76 70 16 0 31 -3 33 -7 3 -5 -6 -82 -19 -173 -13 -91 -23
-173 -24 -182 0 -16 10 -18 83 -18 l82 0 25 188 25 187 33 3 c24 2 34 -1 38
-15 3 -10 21 -50 40 -89 50 -104 130 -170 272 -221 74 -27 82 -23 82 39 0 33
-4 38 -53 66 -60 34 -132 108 -153 157 -27 66 -28 65 121 65 l135 0 0 28 c0
15 3 37 6 49 l6 23 -253 2 -254 3 2 38 2 37 -84 0 c-83 0 -85 -1 -85 -24z"/>
<path d="M1934 1138 c3 -13 8 -45 11 -71 12 -89 95 -146 235 -162 114 -13 383
41 532 106 61 27 77 30 100 21 24 -9 27 -8 19 7 -31 57 -96 72 -217 48 -157
-31 -246 -40 -368 -34 -141 6 -207 24 -271 72 -42 33 -45 34 -41 13z"/>
<path d="M680 623 c1 -10 15 -72 33 -138 27 -102 35 -120 53 -123 19 -3 24 7
42 81 35 140 36 141 56 61 36 -146 35 -144 59 -144 21 0 26 11 55 133 18 72
32 135 32 140 0 4 -8 7 -19 7 -15 0 -22 -18 -42 -106 l-23 -107 -26 104 c-24
96 -28 104 -52 107 -24 3 -26 -1 -53 -104 -32 -117 -31 -117 -61 19 -15 70
-22 87 -36 87 -11 0 -18 -7 -18 -17z"/>
<path d="M1030 623 c1 -10 15 -72 33 -138 27 -102 35 -120 53 -123 19 -3 24 7
42 81 35 140 36 141 56 61 36 -146 35 -144 59 -144 21 0 26 11 55 133 18 72
32 135 32 140 0 4 -8 7 -19 7 -15 0 -22 -18 -42 -106 l-23 -107 -26 104 c-24
96 -28 104 -52 107 -24 3 -26 -1 -53 -104 -32 -117 -31 -117 -61 19 -15 70
-22 87 -36 87 -11 0 -18 -7 -18 -17z"/>
<path d="M1380 623 c1 -10 15 -72 33 -138 27 -102 35 -120 53 -123 19 -3 24 7
42 81 35 140 36 141 56 61 36 -146 35 -144 59 -144 21 0 26 11 55 133 18 72
32 135 32 140 0 4 -8 7 -19 7 -15 0 -22 -18 -42 -106 l-23 -107 -26 104 c-24
96 -28 104 -52 107 -24 3 -26 -1 -53 -104 -32 -117 -31 -117 -61 19 -15 70
-22 87 -36 87 -11 0 -18 -7 -18 -17z"/>
<path d="M1913 624 c-57 -28 -81 -123 -49 -198 19 -47 51 -66 109 -66 40 0 53
5 78 29 32 33 37 56 13 65 -22 8 -24 8 -24 -9 0 -23 -41 -55 -70 -55 -60 0
-97 90 -67 163 15 34 47 57 79 57 5 0 23 -14 39 -31 36 -38 66 -34 47 6 -23
51 -94 69 -155 39z"/>
<path d="M2130 501 c0 -133 1 -141 20 -141 18 0 20 8 22 98 l3 97 59 -97 c48
-80 63 -98 82 -98 l24 0 0 140 c0 133 -1 140 -20 140 -18 0 -20 -8 -22 -102
l-3 -102 -61 99 c-43 71 -67 101 -82 103 -22 3 -22 1 -22 -137z"/>
<path d="M2567 598 c-9 -24 -32 -87 -51 -140 -35 -98 -35 -98 -13 -98 18 0 26
10 37 43 15 42 15 42 64 42 49 0 49 0 64 -42 11 -35 18 -43 38 -43 l24 0 -26
68 c-14 37 -38 100 -52 140 -22 58 -31 72 -48 72 -16 0 -25 -11 -37 -42z"/>
<path d="M2820 628 c-40 -21 -70 -75 -70 -125 0 -94 46 -143 133 -143 81 0
123 57 115 156 -4 45 -10 61 -35 86 -35 35 -102 47 -143 26z m89 -33 c58 -30
68 -138 16 -182 -32 -28 -65 -29 -98 -3 -51 41 -44 154 11 184 34 19 37 19 71
1z"/>
<path d="M3067 633 c-3 -5 -8 -28 -12 -53 -3 -25 -9 -53 -12 -64 -4 -16 -1
-18 23 -13 16 3 38 8 50 12 30 10 54 -19 54 -64 0 -21 -6 -44 -14 -51 -22 -17
-60 -8 -71 18 -12 28 -45 30 -45 2 0 -60 109 -85 149 -34 31 40 29 107 -5 141
-21 21 -32 24 -60 20 -37 -6 -39 -2 -24 37 8 23 15 26 55 26 33 0 45 4 45 15
0 12 -14 15 -64 15 -36 0 -67 -3 -69 -7z"/>
<path d="M3423 624 c-57 -28 -81 -123 -49 -198 19 -47 51 -66 109 -66 40 0 53
5 78 29 32 33 37 56 13 65 -22 8 -24 8 -24 -9 0 -23 -41 -55 -70 -55 -60 0
-97 90 -67 163 15 34 47 57 79 57 5 0 23 -14 39 -31 36 -38 66 -34 47 6 -23
51 -94 69 -155 39z"/>
<path d="M3700 628 c-40 -21 -70 -75 -70 -125 0 -94 46 -143 133 -143 81 0
123 57 115 156 -4 45 -10 61 -35 86 -35 35 -102 47 -143 26z m89 -33 c58 -30
68 -138 16 -182 -32 -28 -65 -29 -98 -3 -51 41 -44 154 11 184 34 19 37 19 71
1z"/>
<path d="M3930 500 c0 -133 1 -140 20 -140 19 0 20 7 21 103 l0 102 32 -102
c27 -88 34 -103 52 -103 19 0 26 14 51 103 l29 102 3 -102 c2 -95 4 -103 22
-103 19 0 20 7 20 140 l0 140 -28 0 c-28 0 -30 -4 -57 -97 -36 -124 -40 -133
-49 -97 -4 16 -19 66 -32 112 -24 78 -26 82 -55 82 l-29 0 0 -140z"/>
</g>
</svg>
