<?xml version="1.0" standalone="no"?><!DOCTYPE svg PUBLIC "-//W3C//DTD SVG 1.1//EN" "http://www.w3.org/Graphics/SVG/1.1/DTD/svg11.dtd"><svg t="1499933669343" class="icon" style="" viewBox="0 0 1024 1024" version="1.1" xmlns="http://www.w3.org/2000/svg" p-id="2618" xmlns:xlink="http://www.w3.org/1999/xlink" width="32" height="32"><defs><style type="text/css"></style></defs><path d="M512 0C229.216 0 0 229.248 0 512c0 282.816 229.216 512 512 512s512-229.184 512-512C1024 229.248 794.784 0 512 0zM512 960C264.576 960 64 759.424 64 512 64 264.608 264.576 64 512 64s448 200.608 448 448C960 759.424 759.424 960 512 960z" p-id="2619"></path><path d="M358.016 363.488m-79.008 0a2.469 2.469 0 1 0 158.016 0 2.469 2.469 0 1 0-158.016 0Z" p-id="2620"></path><path d="M670.016 363.488m-79.008 0a2.469 2.469 0 1 0 158.016 0 2.469 2.469 0 1 0-158.016 0Z" p-id="2621"></path><path d="M744.544 608.768c0 0 16-36-16-60 0 0-36-22.016-67.616 11.936 0 0-30.368 104.064-150.368 97.888 0 0-90.016 2.176-147.744-88.256 0 0-9.248-41.568-68.8-22.368 0 0-35.424 32.8-9.44 68.8 0 0 68.992 122.752 226.016 122.016C510.528 738.752 665.536 757.504 744.544 608.768z" p-id="2622"></path></svg>