<?xml version="1.0" standalone="no"?><!DOCTYPE svg PUBLIC "-//W3C//DTD SVG 1.1//EN" "http://www.w3.org/Graphics/SVG/1.1/DTD/svg11.dtd"><svg t="1499933450291" class="icon" style="" viewBox="0 0 1024 1024" version="1.1" xmlns="http://www.w3.org/2000/svg" p-id="2506" xmlns:xlink="http://www.w3.org/1999/xlink" width="32" height="32"><defs><style type="text/css"></style></defs><path d="M511.961316 0C229.210738 0 0 229.240548 0 512.009648 0 794.775441 229.207609 1024 511.961316 1024 794.741191 1024 1024 794.768688 1024 512.009648 1024 229.2473 794.738062 0 511.961316 0L511.961316 0 511.961316 0 511.961316 0ZM511.961031 56.888889C763.320036 56.888889 967.111111 260.66742 967.111111 512.009719 967.111111 763.347937 763.324018 967.111111 511.961031 967.111111 260.627058 967.111111 56.888889 763.357369 56.888889 512.009719 56.888889 260.657985 260.63104 56.888889 511.961031 56.888889L511.961031 56.888889 511.961031 56.888889 511.961031 56.888889ZM705.801671 718.886662C686.793671 755.742336 654.862507 784.081997 615.952213 798.714485 596.928569 805.850371 577.010916 809.441838 557.092978 809.441838 536.187164 809.441838 515.29728 805.489655 495.473493 797.648023 483.397404 792.83326 477.484942 779.173134 482.283804 767.112704 487.067307 755.005224 500.743111 749.092631 512.8192 753.907393 540.625636 764.93273 571.380622 765.199346 599.406649 754.675874 627.401102 744.136718 650.330169 723.795524 663.990329 697.337853 669.93408 685.74792 684.143218 681.246822 695.670329 687.190781 707.213369 693.166106 711.761351 707.343778 705.801671 718.886662L705.801671 718.886662 705.801671 718.886662 705.801671 718.886662ZM549.193671 413.302903C549.335893 412.757678 549.476978 412.211775 549.617209 411.664936 550.449209 408.41945 551.983502 402.088627 551.995449 402.043455 551.297138 405.026802 550.101333 408.06487 548.479431 411.020988 544.977636 399.656445 543.136996 391.034436 542.180124 387.444904 539.515449 376.09348 527.616569 376.659226 519.586702 376.476726 511.593244 376.659226 499.694364 376.09348 497.011484 387.444904 496.063147 391.016963 494.238151 399.572617 490.770204 410.855208 488.989582 407.552515 487.642169 404.047812 486.796516 400.444917 487.226596 402.157807 488.75776 408.463499 489.582649 411.678288 489.722311 412.221815 489.862542 412.764359 490.004196 413.306189 476.574436 455.560522 440.853049 531.518638 346.377102 533.772427 260.438471 534.593673 251.167573 503.623629 237.826844 488.439731 224.467911 473.255831 204.575573 392.938118 200.177209 381.331194 195.779129 369.706021 178.204444 355.160869 178.204444 355.160869L178.204444 320.613848C178.204444 320.613848 249.123556 297.984 318.783147 297.984 388.151182 297.984 453.175467 326.599808 514.440249 323.752829 516.064427 323.643329 517.779911 323.60683 519.586702 323.60683 521.429902 323.60683 523.145387 323.643329 524.733156 323.752829 586.034347 326.599808 651.040427 297.984 720.408462 297.984 790.068053 297.984 860.987164 320.613848 860.987164 320.613848L860.987164 355.160869C860.987164 355.160869 843.41248 369.706021 839.0144 381.331194 834.616036 392.938118 814.687289 473.255831 801.364764 488.439731 788.024036 503.623629 778.771342 534.593673 692.796302 533.772427 598.331733 531.518578 562.625138 455.556585 549.193671 413.302903L549.193671 413.302903 549.193671 413.302903 549.193671 413.302903 549.193671 413.302903ZM599.79008 383.399188C600.976782 388.023757 602.230329 392.425532 603.703182 396.985825 607.617991 409.109023 612.525227 420.557588 618.610631 430.927226 635.837156 460.281316 658.776178 476.055654 693.339591 476.886135 714.099484 477.084436 728.511147 475.133838 737.710649 471.954822 742.11584 470.432637 743.837298 469.313471 745.363911 467.716614 746.076444 466.971511 746.928071 465.943646 748.220587 464.234641 748.01664 464.504095 752.839111 457.981335 754.686293 455.63832 756.461511 453.414747 757.270471 452.436113 758.602524 450.91995 756.220302 453.635157 755.949227 454.096498 756.166258 453.632461 757.469582 450.846609 759.124764 446.740198 760.99328 441.591768 763.317476 435.187746 765.856427 427.504077 768.611271 418.602741 771.667058 408.730192 783.701618 366.754714 785.816747 361.172961 788.121316 355.081216 748.663751 355.170833 723.421582 354.889788 721.910898 354.875725 721.910898 354.875725 720.408462 354.872889 697.826702 354.872889 677.566009 357.949065 635.798187 366.658921 588.435058 376.535532 564.605156 380.61283 538.550044 380.868813 533.690311 376.333642 525.566009 376.612619 519.586702 376.476726 513.613938 376.613094 505.460338 376.331688 500.600604 380.916528 475.008284 380.685033 451.187484 376.624361 403.397973 366.65895 361.634133 357.95002 341.36576 354.872889 318.783147 354.872889 317.280711 354.875725 317.280711 354.875725 315.770027 354.889788 290.527858 355.170833 251.070293 355.081216 253.374862 361.172961 255.492267 366.760715 267.513458 408.733466 270.56896 418.61186 273.349404 427.600094 275.909973 435.345903 278.251236 441.782047 280.100124 446.863846 281.737102 450.912987 283.022791 453.65242 283.221049 454.07509 282.929209 453.579745 280.563484 450.890937 281.916018 452.430322 282.721564 453.404564 284.491093 455.620278 286.341689 457.966495 291.176107 464.503851 290.965049 464.224671 292.259556 465.936222 293.112889 466.965717 293.826844 467.712327 295.356587 469.312208 297.081173 470.433289 301.486649 471.95588 310.682738 475.134259 325.086151 477.084402 345.020302 476.899721 380.409458 476.055489 403.358436 460.277433 420.588658 430.922954 426.6752 420.553847 431.582436 409.105988 435.494969 396.988561 436.966969 392.429275 438.219947 388.02824 439.402951 383.41254 439.933156 381.344117 441.647787 374.360545 441.647787 374.360545L597.149013 372.790485C597.149013 372.790485 599.269547 381.370271 599.79008 383.399188L599.79008 383.399188 599.79008 383.399188 599.79008 383.399188Z" p-id="2507"></path></svg>