<?xml version="1.0" standalone="no"?><!DOCTYPE svg PUBLIC "-//W3C//DTD SVG 1.1//EN" "http://www.w3.org/Graphics/SVG/1.1/DTD/svg11.dtd"><svg t="1499933824095" class="icon" style="" viewBox="0 0 1024 1024" version="1.1" xmlns="http://www.w3.org/2000/svg" p-id="2733" xmlns:xlink="http://www.w3.org/1999/xlink" width="32" height="32"><defs><style type="text/css"></style></defs><path d="M511.9744 51.2256C257.8944 51.2256 51.2 257.92 51.2 512s206.6944 460.7744 460.7744 460.7744C766.08 972.7744 972.8 766.08 972.8 512S766.08 51.2256 511.9744 51.2256zM511.9744 934.3744C279.0656 934.3744 89.6 744.9088 89.6 512S279.0656 89.6256 511.9744 89.6256C744.9088 89.6256 934.4 279.0912 934.4 512S744.9088 934.3744 511.9744 934.3744z" p-id="2734"></path><path d="M731.0592 617.1648c-10.0096-3.5584-20.9664 1.6128-24.5504 11.5968-29.312 81.792-107.4176 136.7552-194.3808 136.7552-87.296 0-165.504-55.2704-194.6368-137.5232-3.5328-10.0096-14.4896-15.2064-24.5248-11.6992-9.984 3.5328-15.232 14.5152-11.6992 24.5248 34.5344 97.5616 127.3088 163.0976 230.8352 163.0976 103.1168 0 195.7632-65.1776 230.528-162.2016C746.24 631.7568 741.0432 620.7488 731.0592 617.1648z" p-id="2735"></path><path d="M333.696 355.6096c38.5792 0 69.9904 38.016 69.9904 84.736 0 10.5984 8.6016 19.2 19.2 19.2s19.2-8.6016 19.2-19.2c0-67.8912-48.6144-123.136-108.3904-123.136s-108.3648 55.2448-108.3648 123.136c0 10.5984 8.6016 19.2 19.2 19.2s19.2-8.6016 19.2-19.2C263.7056 393.6 295.0912 355.6096 333.696 355.6096z" p-id="2736"></path><path d="M690.304 317.2096c-59.7504 0-108.3904 55.2448-108.3904 123.136 0 10.5984 8.6016 19.2 19.2 19.2s19.2-8.6016 19.2-19.2c0-46.72 31.4112-84.736 69.9904-84.736s69.9648 38.016 69.9648 84.736c0 10.5984 8.6016 19.2 19.2 19.2s19.2-8.6016 19.2-19.2C798.6944 372.4288 750.08 317.2096 690.304 317.2096z" p-id="2737"></path></svg>